<svg xmlns="http://www.w3.org/2000/svg" viewBox="0 0 32 32" width="32" height="32">
  <defs>
    <linearGradient id="bg" x1="0%" y1="0%" x2="100%" y2="100%">
      <stop offset="0%" stop-color="#6366f1"/>
      <stop offset="100%" stop-color="#8b5cf6"/>
    </linearGradient>
  </defs>
  <!-- Rounded square background -->
  <rect width="32" height="32" rx="8" fill="url(#bg)"/>
  <!-- Brain/AI head shape -->
  <path d="M16 6C13.3 6 11 7.7 10.2 10.2C8 10.7 6.3 12.7 6.3 15C6.3 16.7 7.1 18.2 8.5 19.1V23.5H23.5V19.1C24.9 18.2 25.7 16.7 25.7 15C25.7 12.7 24 10.7 21.8 10.2C21 7.7 18.7 6 16 6Z" fill="white"/>
  <!-- Center divider line subtle -->
  <line x1="16" y1="7.5" x2="16" y2="23" stroke="rgba(99,102,241,0.4)" stroke-width="1"/>
  <!-- Left antenna node -->
  <line x1="6.3" y1="15" x2="3.5" y2="15" stroke="white" stroke-width="1.5" stroke-linecap="round" opacity="0.9"/>
  <circle cx="3.5" cy="15" r="1.5" fill="white" opacity="0.9"/>
  <!-- Right antenna node -->
  <line x1="25.7" y1="15" x2="28.5" y2="15" stroke="white" stroke-width="1.5" stroke-linecap="round" opacity="0.9"/>
  <circle cx="28.5" cy="15" r="1.5" fill="white" opacity="0.9"/>
  <!-- Top antenna node -->
  <line x1="16" y1="6" x2="16" y2="3.5" stroke="white" stroke-width="1.5" stroke-linecap="round" opacity="0.9"/>
  <circle cx="16" cy="3.5" r="1.5" fill="white" opacity="0.9"/>
  <!-- Neck/base bar -->
  <rect x="12.5" y="23.5" width="7" height="2.5" rx="1.25" fill="white" opacity="0.85"/>
</svg>
